<?xml version="1.0" encoding="iso-8859-1"?>
<!-- Uploaded to: SVG Repo, www.svgrepo.com, Generator: SVG Repo Mixer Tools -->
<svg version="1.1" id="Layer_1" xmlns="http://www.w3.org/2000/svg" xmlns:xlink="http://www.w3.org/1999/xlink" 
	 viewBox="0 0 512 512" xml:space="preserve">
<rect y="57.332" width="512" height="397.336"/>
<circle style="fill:#E21B1B;" cx="44.192" cy="89.38" r="8.928"/>
<g style="opacity:0.7;">
	<circle style="fill:#FFFFFF;" cx="70.968" cy="89.38" r="8.928"/>
</g>
<g>
	<circle style="fill:#666666;" cx="97.736" cy="89.38" r="8.928"/>
	<polygon style="fill:#666666;" points="443.52,105.06 155.96,105.06 175.08,73.716 462.656,73.716 	"/>
</g>
<g>
	<path style="fill:#FFFFFF;" d="M195.2,82.396l1.856,7.128c0.408,1.56,0.8,3.008,1.048,4.456h0.096c0.312-1.416,0.8-2.92,1.24-4.424
		l2.296-7.16h2.144l2.168,7.008c0.52,1.672,0.928,3.16,1.248,4.576h0.088c0.28-1.536,0.64-3.048,1.08-4.544l2.008-7.04h2.52
		l-4.52,14.016h-2.312l-2.144-6.688c-0.488-1.6-0.896-2.952-1.248-4.616h-0.056c-0.336,1.568-0.76,3.12-1.28,4.64l-2.264,6.664
		h-2.312l-4.224-14.016H195.2z"/>
	<path style="fill:#FFFFFF;" d="M216.856,82.396l1.856,7.128c0.408,1.56,0.8,3.008,1.048,4.456h0.088
		c0.32-1.416,0.8-2.92,1.248-4.424l2.28-7.16h2.144l2.176,7.008c0.52,1.672,0.928,3.16,1.24,4.576h0.096
		c0.272-1.536,0.632-3.056,1.08-4.544l2.008-7.04h2.52l-4.52,14.016h-2.328l-2.144-6.688c-0.496-1.512-0.912-3.056-1.24-4.616
		h-0.064c-0.328,1.568-0.752,3.12-1.272,4.64l-2.264,6.664h-2.328l-4.232-14.016H216.856z"/>
	<path style="fill:#FFFFFF;" d="M238.488,82.396l1.856,7.128c0.408,1.56,0.8,3.008,1.048,4.456h0.088
		c0.32-1.416,0.8-2.92,1.248-4.424l2.28-7.16h2.144l2.176,7.008c0.52,1.672,0.928,3.16,1.24,4.576h0.096
		c0.272-1.536,0.632-3.056,1.08-4.544l2.008-7.04h2.52l-4.52,14.016h-2.328l-2.152-6.688c-0.496-1.512-0.912-3.056-1.24-4.616
		h-0.064c-0.328,1.568-0.752,3.12-1.272,4.64l-2.264,6.664h-2.328l-4.232-14.016H238.488z"/>
</g>
<g>
	<polygon style="fill:#666666;" points="0,423.58 82.856,423.58 113.944,454.66 0,454.66 	"/>
	<polygon style="fill:#666666;" points="512,423.58 429.144,423.58 398.056,454.66 512,454.66 	"/>
</g>
<path style="fill:#E21B1B;" d="M425.456,321.988H86.544V201.236h338.912V321.988z M92.544,315.996h326.912v-108.76H92.544V315.996z"
	/>
<g>
	<path style="fill:#FFFFFF;" d="M214.728,270.532l12.952,1.96c-2.08,6.392-6.04,12-11.376,16.088
		c-5.152,3.76-11.392,5.72-17.768,5.6c-6.688,0.376-13.216-2.136-17.92-6.904c-4.64-5.592-6.952-12.752-6.456-20
		c-0.08-6.744,1.4-13.424,4.328-19.504c5.152-11.2,16.384-18.344,28.712-18.272c5.952-0.272,11.792,1.664,16.408,5.432
		c4.272,3.808,6.904,9.112,7.368,14.808l-12.312,1.192c-0.36-3.008-1.752-5.808-3.936-7.904c-2.216-1.72-4.976-2.592-7.784-2.448
		c-3.568,0-7.048,1.12-9.944,3.2c-3.4,2.584-5.968,6.096-7.4,10.12c-1.8,4.36-2.736,9.024-2.768,13.744
		c-0.272,4.176,1.008,8.296,3.6,11.584c2.216,2.648,5.512,4.152,8.968,4.096c3.328,0,6.56-1.144,9.144-3.24
		C211.52,277.596,213.68,274.26,214.728,270.532z"/>
	<path style="fill:#FFFFFF;" d="M234.464,272.788l12.224-0.632c-0.144,2.768,0.552,5.52,2.008,7.88
		c2.824,2.56,6.616,3.768,10.4,3.32c3.208,0.272,6.416-0.52,9.128-2.256c1.752-1.264,2.8-3.296,2.816-5.456
		c0.008-1.84-0.848-3.568-2.304-4.688c-2.776-1.848-5.76-3.376-8.88-4.56c-3.656-1.504-7.2-3.264-10.608-5.264
		c-2.184-1.36-3.992-3.24-5.264-5.48c-1.32-2.416-1.976-5.128-1.912-7.88c-0.12-4.992,1.976-9.776,5.712-13.08
		c4.656-3.752,10.56-5.608,16.528-5.2c6.112-0.384,12.152,1.448,17.024,5.16c4.024,3.448,6.424,8.424,6.624,13.72l-12.312,0.552
		c-0.144-2.624-1.304-5.08-3.24-6.856c-2.352-1.752-5.248-2.608-8.176-2.4c-2.672-0.24-5.352,0.416-7.608,1.872
		c-1.456,1.136-2.296,2.88-2.272,4.728c-0.032,1.72,0.736,3.36,2.088,4.432c2.864,2.008,5.968,3.656,9.24,4.904
		c4.936,1.8,9.56,4.344,13.728,7.544c2.936,2.872,4.528,6.848,4.384,10.952c0.032,5.448-2.36,10.624-6.536,14.128
		c-5.12,4.168-11.616,6.256-18.208,5.856c-4.792,0.12-9.56-0.808-13.96-2.704c-3.56-1.464-6.504-4.128-8.328-7.52
		C235.08,280.428,234.288,276.62,234.464,272.788z"/>
	<path style="fill:#FFFFFF;" d="M292.664,272.788l12.224-0.632c-0.144,2.768,0.552,5.52,2.008,7.88
		c2.824,2.56,6.616,3.768,10.4,3.32c3.208,0.272,6.416-0.52,9.128-2.256c1.752-1.264,2.8-3.296,2.816-5.456
		c0.008-1.84-0.848-3.568-2.304-4.688c-2.776-1.848-5.76-3.376-8.88-4.56c-3.656-1.504-7.2-3.264-10.608-5.264
		c-2.184-1.36-3.992-3.24-5.264-5.48c-1.32-2.416-1.976-5.128-1.912-7.88c-0.12-4.992,1.976-9.776,5.712-13.08
		c4.656-3.752,10.56-5.608,16.528-5.2c6.112-0.384,12.152,1.448,17.024,5.16c4.024,3.448,6.424,8.424,6.624,13.72l-12.312,0.552
		c-0.144-2.624-1.304-5.08-3.24-6.856c-2.352-1.752-5.248-2.608-8.176-2.4c-2.672-0.24-5.352,0.416-7.608,1.872
		c-1.456,1.136-2.296,2.88-2.272,4.728c-0.032,1.72,0.736,3.36,2.088,4.432c2.864,2.008,5.968,3.656,9.24,4.904
		c4.936,1.816,9.56,4.376,13.72,7.584c2.936,2.872,4.528,6.848,4.384,10.952c0.032,5.448-2.36,10.624-6.536,14.128
		c-5.12,4.168-11.616,6.256-18.208,5.856c-4.792,0.12-9.56-0.808-13.96-2.704c-3.56-1.464-6.504-4.128-8.328-7.52
		C293.264,280.452,292.48,276.628,292.664,272.788z"/>
</g>
</svg>