<?xml version="1.0" encoding="iso-8859-1"?>
<!-- Uploaded to: SVG Repo, www.svgrepo.com, Generator: SVG Repo Mixer Tools -->
<svg version="1.1" id="Layer_1" xmlns="http://www.w3.org/2000/svg" xmlns:xlink="http://www.w3.org/1999/xlink" 
	 viewBox="0 0 512 512" xml:space="preserve">
<rect y="57.332" width="512" height="397.336"/>
<circle style="fill:#E21B1B;" cx="44.192" cy="89.38" r="8.928"/>
<g style="opacity:0.7;">
	<circle style="fill:#FFFFFF;" cx="70.968" cy="89.38" r="8.928"/>
</g>
<g>
	<circle style="fill:#666666;" cx="97.736" cy="89.38" r="8.928"/>
	<polygon style="fill:#666666;" points="443.52,105.06 155.96,105.06 175.08,73.716 462.656,73.716 	"/>
</g>
<g>
	<path style="fill:#FFFFFF;" d="M195.2,82.396l1.856,7.128c0.408,1.56,0.8,3.008,1.048,4.456h0.096c0.312-1.416,0.8-2.92,1.24-4.424
		l2.296-7.16h2.144l2.168,7.008c0.52,1.672,0.928,3.16,1.248,4.576h0.088c0.28-1.536,0.64-3.048,1.08-4.544l2.008-7.04h2.52
		l-4.52,14.016h-2.312l-2.144-6.688c-0.488-1.6-0.896-2.952-1.248-4.616h-0.056c-0.336,1.568-0.76,3.12-1.28,4.64l-2.264,6.664
		h-2.312l-4.224-14.016H195.2z"/>
	<path style="fill:#FFFFFF;" d="M216.856,82.396l1.856,7.128c0.408,1.56,0.8,3.008,1.048,4.456h0.088
		c0.32-1.416,0.8-2.92,1.248-4.424l2.28-7.16h2.144l2.176,7.008c0.52,1.672,0.928,3.16,1.24,4.576h0.096
		c0.272-1.536,0.632-3.056,1.08-4.544l2.008-7.04h2.52l-4.52,14.016h-2.328l-2.144-6.688c-0.496-1.512-0.912-3.056-1.24-4.616
		h-0.064c-0.328,1.568-0.752,3.12-1.272,4.64l-2.264,6.664h-2.328l-4.232-14.016H216.856z"/>
	<path style="fill:#FFFFFF;" d="M238.488,82.396l1.856,7.128c0.408,1.56,0.8,3.008,1.048,4.456h0.088
		c0.32-1.416,0.8-2.92,1.248-4.424l2.28-7.16h2.144l2.176,7.008c0.52,1.672,0.928,3.16,1.24,4.576h0.096
		c0.272-1.536,0.632-3.056,1.08-4.544l2.008-7.04h2.52l-4.52,14.016h-2.328l-2.152-6.688c-0.496-1.512-0.912-3.056-1.24-4.616
		h-0.064c-0.328,1.568-0.752,3.12-1.272,4.64l-2.264,6.664h-2.328l-4.232-14.016H238.488z"/>
</g>
<g>
	<polygon style="fill:#666666;" points="0,423.58 82.856,423.58 113.944,454.66 0,454.66 	"/>
	<polygon style="fill:#666666;" points="512,423.58 429.144,423.58 398.056,454.66 512,454.66 	"/>
</g>
<path style="fill:#FFFFFF;" d="M136.904,264.916c-8.472,3.04-17.4,4.632-26.4,4.704c-11.784,0.664-23.352-3.416-32.104-11.336
	c-8.128-8.624-12.448-20.16-12-32c0.128-25.6,17.72-44.376,46.52-44.376c7.344-0.16,14.632,1.208,21.424,4l-2.672,9.048
	c-5.992-2.6-12.48-3.864-19.008-3.688c-17.696-1.384-33.16,11.84-34.544,29.536c-0.128,1.672-0.128,3.344,0,5.008
	c0,21.792,13.136,34.672,33.144,34.672c5.04,0.272,10.072-0.504,14.792-2.288v-25.6h-17.448v-9.008h28.296L136.904,264.916
	L136.904,264.916z"/>
<path style="fill:#E21B1B;" d="M209.992,237.356c1.464,16.592-10.8,31.232-27.392,32.688c-1.104,0.096-2.224,0.136-3.336,0.112
	c-16.2,0.208-29.496-12.76-29.696-28.952c-0.008-0.936,0.024-1.872,0.096-2.8c-1.48-16.576,10.76-31.208,27.328-32.688
	c1.08-0.096,2.168-0.136,3.256-0.112c16.136-0.352,29.496,12.448,29.848,28.584C210.12,235.252,210.08,236.308,209.992,237.356z
	 M161.032,237.996c0,13.52,7.776,23.712,18.736,23.712c10.72,0,18.752-10.064,18.752-24c0-10.448-5.232-23.712-18.504-23.712
	S161.04,226.276,161.032,237.996L161.032,237.996z"/>
<path style="fill:#666666;" d="M280,237.356c1.464,16.592-10.8,31.232-27.392,32.688c-1.104,0.096-2.224,0.136-3.336,0.112
	c-16.2,0.208-29.496-12.76-29.696-28.952c-0.008-0.936,0.024-1.872,0.096-2.8c-1.48-16.576,10.76-31.208,27.328-32.688
	c1.08-0.096,2.168-0.136,3.256-0.112c16.136-0.352,29.496,12.448,29.848,28.584C280.128,235.252,280.088,236.308,280,237.356z
	 M231.04,237.996c0,13.52,7.776,23.712,18.736,23.712c10.72,0,18.752-10.064,18.752-24c0-10.448-5.232-23.712-18.504-23.712
	s-18.952,12.272-18.952,23.992L231.04,237.996z"/>
<g>
	<path style="fill:#FFFFFF;" d="M347.384,207.012c-0.256,4.472-0.512,9.448-0.512,16.976v35.816c0,14.16-2.816,22.824-8.8,28.168
		c-6.296,5.176-14.296,7.816-22.44,7.4c-7.176,0.184-14.272-1.576-20.536-5.088l2.816-8.544c5.48,3.224,11.744,4.888,18.104,4.8
		c11.464,0,19.88-6,19.88-21.536v-6.848h-0.256c-4.208,6.728-11.712,10.664-19.64,10.32c-15.304,0-26.256-13.008-26.256-30.096
		c0-20.896,13.6-32.8,27.784-32.8c7.952-0.472,15.456,3.712,19.248,10.72h0.256l0.512-9.32L347.384,207.012z M335.768,231.364
		c0.064-1.72-0.152-3.44-0.64-5.088c-1.944-7.048-8.368-11.912-15.68-11.864c-10.704,0-18.352,9.048-18.352,23.336
		c0,12.12,6.128,22.192,18.224,22.192c7.128-0.04,13.416-4.672,15.56-11.464c0.608-1.944,0.904-3.968,0.888-6V231.364z"/>
	<path style="fill:#FFFFFF;" d="M365.52,178.212h11.2v90.52h-11.2V178.212z"/>
</g>
<path style="fill:#E21B1B;" d="M401.864,239.908c-0.944,10.88,7.104,20.456,17.984,21.4c1.056,0.088,2.112,0.096,3.168,0.024
	c5.864,0.176,11.696-0.912,17.104-3.2l1.912,8c-6.504,2.704-13.496,4-20.536,3.816c-15.792,0.968-29.376-11.048-30.352-26.84
	c-0.088-1.408-0.072-2.816,0.056-4.216c0-18.608,10.96-33.272,28.928-33.272c20.152,0,25.496,17.72,25.496,29.08
	c-0.024,1.744-0.152,3.488-0.384,5.216L401.864,239.908z M434.76,231.908c1.248-8.744-4.824-16.856-13.576-18.104
	c-0.656-0.096-1.32-0.144-1.984-0.16c-9.584,0.72-17.04,8.616-17.208,18.224L434.76,231.908z"/>
<g>
	<rect x="72" y="329.916" style="fill:#999999;" width="368" height="8"/>
	<rect x="138.952" y="359.5" style="fill:#999999;" width="234.08" height="8"/>
</g>
</svg>